<?xml version="1.0" encoding="utf-8"?>
<!-- Generator: Adobe Illustrator 24.3.0, SVG Export Plug-In . SVG Version: 6.00 Build 0)  -->
<svg version="1.1" id="Layer_1" xmlns="http://www.w3.org/2000/svg" xmlns:xlink="http://www.w3.org/1999/xlink" x="0px" y="0px"
	 viewBox="0 0 73 63" style="enable-background:new 0 0 73 63;" xml:space="preserve">
<style type="text/css">
	.st0{fill-rule:evenodd;clip-rule:evenodd;fill:#FEF4ED;}
	.st1{fill-rule:evenodd;clip-rule:evenodd;fill:#202932;}
</style>
<path class="st0" d="M65.3,6.2C59.9-0.3,49-1.4,42.3,4c-4,3.2-6.3,8.2-10.5,11.1c-7,4.9-17.3,3-24.2,8.1c-5.3,4.1-7.1,11.4-4.3,17.5
	C9.8,54,25.5,61.2,40.6,61.9c4.1,0,9.7-1.8,9-12.1c-0.3-3.7-0.5-7.5,1.1-10.6c2.5-4.8,8.5-6.5,12.6-10C69.9,23.6,70.8,12.8,65.3,6.2
	z"/>
<path class="st0" d="M70.9,15.8C67.5,7.9,57.2,3.7,49.2,7C47,8,44.9,9.2,43,10.7c-2.1,1.6-4.5,3-7,4c-4,1.3-8.4,0.8-12.6,0.4
	c-4.3-0.5-8.8-1-13,0.5c-6.4,2.5-10.2,9-9.3,15.8C3.3,44.6,15.1,56.9,31,62.4c1.1,0.3,2.2,0.5,3.3,0.5c1.4,0,2.7-0.3,3.9-1
	c2.5-1.4,4.2-4.3,5.3-8.7c0.8-3.6,1.6-7.2,4.1-9.8c2.4-2.4,5.6-3.2,9.1-4.1c2-0.4,3.9-1,5.8-1.8C70.2,34,74.3,23.7,70.9,15.8z
	 M62.2,37.2c-1.8,0.8-3.7,1.3-5.7,1.8c-3.4,0.8-6.9,1.7-9.3,4.2c-2.5,2.6-3.4,6.3-4.2,10c-1,4.2-2.7,7.1-5.1,8.4
	c-2.1,1.1-4.6,1.3-6.8,0.4C15.4,56.5,3.7,44.4,1.5,31.2c-0.9-6.6,2.9-12.9,9-15.3c2-0.7,4.1-1,6.2-0.9c2.2,0,4.4,0.2,6.6,0.5
	c4.3,0.5,8.7,1,12.8-0.4c2.6-1,5-2.3,7.1-4c1.9-1.4,4-2.6,6.1-3.6c7.7-3.2,17.8,0.9,21.1,8.6C73.8,23.7,69.8,33.7,62.2,37.2z"/>
<path id="Shape_375_1" class="st1" d="M61.2,29c-2,5.7-6.9,9.9-12.8,11c-0.1,0-0.2,0-0.3,0c-0.4,0.1-0.8-0.2-0.9-0.6
	c-0.1-0.4,0.2-0.8,0.6-0.9c0,0,0.1,0,0.1,0c0.5-0.1,1-0.2,1.5-0.4c8.3-2.5,12.9-11.2,10.4-19.5C57.3,10.4,48.6,5.8,40.3,8.2
	c-5.8,1.7-10,6.7-10.9,12.7c-0.1,0.7-0.1,1.4-0.2,2.1c0.1,0.5-0.3,0.9-0.7,0.9c0,0,0,0-0.1,0c-0.5,0-0.8-0.4-0.8-0.8
	c0,0,0-0.1,0-0.1c0.1-9.5,8-17.2,17.5-17c4.4,0.1,8.8,1.9,11.9,5c3.6,3.6,5.4,8.6,4.9,13.7C61.8,26.2,61.6,27.6,61.2,29z M28.1,24.8
	c2.2,0.3,3.9,2,4.1,4.2c0.1,1.3,0,2.7-0.3,4c-0.1,0.9-0.2,1.7-0.3,2.7h0.6c3.1,0,6.3,0,9.4,0c1.7,0,3.1,1.3,3.2,3.1
	c0,0.1,0,0.2,0,0.3c-0.1,1-0.6,1.9-1.5,2.4c1.1,1.4,0.8,3.4-0.6,4.5c-0.1,0.1-0.2,0.1-0.2,0.2c1.1,1.4,0.9,3.3-0.5,4.4
	c-0.1,0.1-0.2,0.2-0.3,0.2c0.5,0.6,0.7,1.4,0.7,2.2c-0.1,1.4-1,2.5-2.4,2.8c-0.1,0-0.1,0.1-0.2,0.1H25.7c-1-0.3-1.9-0.6-2.9-0.9
	c-0.5-0.1-0.9-0.3-1.4-0.4c0.1,0.5-0.1,1-0.5,1.3h-8.4c-0.4-0.3-0.6-0.7-0.5-1.1c0-5.5,0-11,0-16.5c0-0.9,0.2-1.1,1.1-1.1h7
	c1,0,1.2,0.2,1.2,1.2c0,0.1,0,0.1,0,0.2c1.1-0.6,1.9-1.6,2.4-2.8c1-3.4,2-6.8,3-10.2c0-0.5,0.5-1,1-0.9C27.9,24.7,28,24.7,28.1,24.8
	z M19.8,38.9h-6.2v15.6h6.2V38.9z M25.4,36.2c-0.1,0.4-0.3,0.9-0.6,1.3c-0.7,1.3-2,2.3-3.4,2.8v12.8c1.2,0.3,2.3,0.7,3.4,1
	c0.5,0.2,1,0.3,1.6,0.4c4.3,0,8.6,0,12.9,0c0.9,0,1.6-0.6,1.6-1.5c0-0.9-0.6-1.6-1.5-1.6c-0.1,0-0.1,0-0.2,0c-0.9,0-1.9,0-2.8,0
	c-0.4,0.1-0.9-0.2-1-0.6s0.2-0.9,0.6-1c0.1,0,0.2,0,0.3,0c1.2,0,2.4,0,3.6,0c0.9,0.1,1.6-0.6,1.7-1.5c0.1-0.9-0.6-1.6-1.5-1.7
	c-0.1,0-0.1,0-0.2,0c-0.9,0-1.9,0-2.8,0c-0.4,0.1-0.8-0.2-0.9-0.6c-0.1-0.4,0.2-0.8,0.6-0.9c0.1,0,0.2,0,0.3,0c1.2,0,2.3,0,3.5,0
	c0.9,0.1,1.7-0.5,1.8-1.3S42,42.1,41.1,42c-0.1,0-0.3,0-0.4,0c-0.9,0-1.9,0-2.8,0c-0.4,0-0.8-0.3-0.9-0.7s0.3-0.8,0.7-0.9
	c0.1,0,0.1,0,0.2,0c1.3,0,2.5,0,3.8,0c0.7,0,1.3-0.4,1.5-1c0.3-0.8-0.1-1.7-0.9-2c-0.2-0.1-0.4-0.1-0.7-0.1c-3.5,0-7.1,0-10.6,0
	c-0.4,0.1-0.9-0.2-1-0.6c0-0.1,0-0.3,0-0.4c0.2-1.4,0.4-2.8,0.5-4.2c0.2-1,0.2-2,0.1-3c-0.2-1.3-1.1-2.4-2.5-2.7
	c-0.1,0.2-0.1,0.3-0.2,0.5C27.2,30,26.3,33.1,25.4,36.2z M43.4,29.3c-0.2,0-0.4-0.1-0.6-0.1c-1.4,0.1-2.7,0.4-3.9,1c0,0,0,0,0,0
	c-0.5,0.1-1-0.3-1.1-0.8c0-0.6,0.5-1.1,1.1-1.2c0.4-0.2,0.7-0.4,1-0.7c0.3-0.3,0.5-0.5,0.7-0.9c0.2-0.4,0.4-0.8,0.5-1.2
	c0.1-0.5,0.2-1,0.2-1.5c0-0.4,0-0.8-0.1-1.1l-0.1-0.2h-2.2l-0.1,0c-0.4,0-0.8-0.4-0.7-0.9c0-0.4,0.3-0.7,0.7-0.7h1.8l-0.1-0.4
	c-0.1-0.5-0.2-0.9-0.3-1.3c-0.1-0.4-0.1-0.8-0.1-1.2c0-0.7,0.1-1.3,0.4-1.9c0.2-0.6,0.6-1,1-1.4c0.5-0.4,1-0.7,1.6-0.9
	c0.7-0.2,1.3-0.3,2-0.3c0.6,0,1.3,0.1,1.9,0.3c0.5,0.2,1,0.4,1.5,0.8c0.4,0.4,0.8,0.8,1,1.3c0.3,0.6,0.4,1.2,0.5,1.8v0c0,0,0,0,0,0
	l0,0.1l0,0c-0.1,0.6-0.6,1-1.2,0.9c-0.5-0.1-0.9-0.4-0.9-0.9c0,0,0-0.1,0-0.1v0l0-0.1c0,0,0,0,0,0c0-1.4-1-2.5-2.4-2.5
	c-0.1,0-0.3,0-0.4,0c-0.4,0-0.8,0.1-1.2,0.2c-0.3,0.1-0.6,0.3-0.9,0.6c-0.2,0.3-0.4,0.6-0.6,0.9c-0.1,0.3-0.2,0.7-0.2,1.1
	c0,1,0.2,2,0.5,2.9l0.1,0.2h3.4h0h0c0,0,0.1,0,0.1,0c0.4,0.1,0.7,0.5,0.6,0.9c-0.1,0.3-0.3,0.5-0.6,0.6c0,0-0.1,0-0.1,0l-3.1,0
	l0.1,0.4c0,0.2,0.1,0.4,0.1,0.6c0,0.4,0,0.8-0.1,1.3c-0.1,0.4-0.2,0.7-0.3,1c-0.2,0.3-0.4,0.6-0.6,0.9c-0.1,0.1-0.1,0.1-0.2,0.2
	l-0.6,0.6l0.8-0.1c0.2,0,0.4,0,0.6,0c0.4,0,0.7,0,1.1,0.1c0.5,0.1,0.9,0.2,1.4,0.2c0.5,0.1,0.9,0.2,1.3,0.2c1.1,0.3,2.3,0.1,3.3-0.5
	l0,0c0.1,0,0.1,0,0.2,0l0.1,0l0,0c0.5-0.1,1.1,0.3,1.1,0.8c0.1,0.5-0.3,1.1-0.8,1.1c0,0-0.3,0.1-0.5,0.2c-0.8,0.3-1.6,0.5-2.5,0.5h0
	c-0.2,0-0.4,0-0.6-0.1c-0.3-0.1-0.5-0.1-0.8-0.2c-0.3-0.1-0.6-0.2-1-0.2c-0.3-0.1-0.7-0.2-1-0.2C44,29.4,43.7,29.3,43.4,29.3
	L43.4,29.3z"/>
</svg>
