<svg xmlns="http://www.w3.org/2000/svg" width="18" height="22" viewBox="0 0 18 22">
  <defs>
    <style>
      .cls-1 {
        fill: #6ea4f4;
        fill-rule: evenodd;
      }
    </style>
  </defs>
  <path id="Shape_333_1" data-name="Shape 333 1" class="cls-1" d="M1092.43,6447.01a6.944,6.944,0,0,1-1.3,2.13l-6.54,7.59a0.78,0.78,0,0,1-1.18,0l-6.54-7.59a7.144,7.144,0,0,1-1.3-2.13,8.743,8.743,0,0,1,1.05-8.18A8.973,8.973,0,0,1,1092.43,6447.01Zm-2.33-7.31a7.419,7.419,0,0,0-13.07,6.77,5.608,5.608,0,0,0,1.02,1.67l5.95,6.9,5.94-6.9h0.01a5.486,5.486,0,0,0,1.02-1.66A7.277,7.277,0,0,0,1090.1,6439.7Zm-6.1,8.48a4.31,4.31,0,1,1,4.36-4.31A4.341,4.341,0,0,1,1084,6448.18Zm0-7.08a2.77,2.77,0,1,0,2.8,2.77A2.789,2.789,0,0,0,1084,6441.1Z" transform="translate(-1075 -6435)"/>
</svg>
