<svg xmlns="http://www.w3.org/2000/svg" width="15.562" height="13.781" viewBox="0 0 15.562 13.781">
  <defs>
    <style>
      .cls-1 {
        fill: #373d4c;
        fill-rule: evenodd;
      }
    </style>
  </defs>
  <path id="Shape_317_1_copy_3" data-name="Shape 317 1 copy 3" class="cls-1" d="M270.36,597.886h10.548L276.951,594a1.1,1.1,0,0,1,0-1.575,1.141,1.141,0,0,1,1.6,0l5.893,5.791v0a1.1,1.1,0,0,1,0,1.576h0l-5.893,5.792a1.138,1.138,0,0,1-1.6,0,1.106,1.106,0,0,1,0-1.576l3.957-3.887H270.36A1.114,1.114,0,1,1,270.36,597.886Z" transform="translate(-269.219 -592.125)"/>
</svg>
