<svg xmlns="http://www.w3.org/2000/svg" width="8" height="14" viewBox="0 0 8 14">
  <defs>
    <style>
      .cls-1 {
        fill: #a36df5;
        fill-rule: evenodd;
      }
    </style>
  </defs>
  <path id="Shape_332_1_copy_5" data-name="Shape 332 1 copy 5" class="cls-1" d="M1222.78,4089.45l-6.06-6.23a0.726,0.726,0,0,0-.52-0.22,0.749,0.749,0,0,0-.53.22l-0.45.46a0.792,0.792,0,0,0,0,1.09l5.09,5.23-5.09,5.23a0.785,0.785,0,0,0,0,1.09l0.44,0.46a0.748,0.748,0,0,0,1.06,0l6.06-6.24a0.773,0.773,0,0,0,.22-0.54A0.8,0.8,0,0,0,1222.78,4089.45Z" transform="translate(-1215 -4083)"/>
</svg>
