<svg xmlns="http://www.w3.org/2000/svg" width="56.28" height="58.72" viewBox="0 0 56.28 58.72">
  <defs>
    <style>
      .cls-1 {
        fill: #fee5f5;
      }

      .cls-1, .cls-2 {
        fill-rule: evenodd;
      }

      .cls-2 {
        fill: #202932;
      }
    </style>
  </defs>
  <path id="Shape_19_copy_2" data-name="Shape 19 copy 2" class="cls-1" d="M1220.7,5826.34a14.991,14.991,0,0,0-10.26-20.65c-3.8-.91-7.99-0.37-11.42-2.21-4.87-2.62-6.75-9.28-11.93-11.21-3.77-1.41-8.08.29-11.11,2.93a19.665,19.665,0,0,0,2.57,31.59c2.47,1.53,5.45,2.68,6.77,5.26,1.5,2.91.28,6.46,0.78,9.7,0.79,5.07,6.02,8.68,11.16,8.72s9.97-2.83,13.42-6.63,7.77-12.89,10.02-17.5m-17.92,22.68c-4.08,0-7.95-2-9.72-5.35a19.357,19.357,0,0,1-1.34-3.66c-0.57-1.99-1.11-3.86-2.53-5.21-1.59-1.53-3.89-1.95-6.12-2.35-0.63-.12-1.28-0.24-1.9-0.38a19.89,19.89,0,0,1-12.87-29.32c1.82-3.15,5.26-6.48,9.51-6.48h0.21c3,0.08,5.57,1.78,8.06,3.42,2.16,1.43,4.39,2.91,6.9,3.32a18.039,18.039,0,0,0,7.09-.76,31.08,31.08,0,0,1,4.38-.85,15.218,15.218,0,0,1,16.66,16.4l-0.12.97c-0.66,5.4-1.76,14.42-3.67,18.89-2.28,5.33-6.16,9.24-10.63,10.73A12.3,12.3,0,0,1,1202.78,5849.02Zm-24.97-52.37c-4.09,0-7.41,3.23-9.18,6.29a19.512,19.512,0,0,0,12.62,28.76c0.62,0.14,1.26.26,1.89,0.37,2.28,0.42,4.64.85,6.32,2.45,1.49,1.42,2.07,3.43,2.63,5.38a19.23,19.23,0,0,0,1.31,3.59c2.21,4.18,8.11,6.22,13.17,4.53,4.37-1.45,8.16-5.28,10.4-10.51,1.89-4.42,2.98-13.41,3.64-18.79l0.12-.95a14.85,14.85,0,0,0-16.24-15.99,30.24,30.24,0,0,0-4.32.84,18.412,18.412,0,0,1-7.25.77c-2.59-.43-4.86-1.93-7.05-3.38-2.56-1.68-4.97-3.28-7.86-3.35C1177.95,5796.66,1177.88,5796.65,1177.81,5796.65Z" transform="translate(-1165.69 -5791.75)"/>
  <path class="cls-2" d="M1190.54,5845.38a20.06,20.06,0,1,1,20.06-20.06A20.123,20.123,0,0,1,1190.54,5845.38Zm0-38.12a18.055,18.055,0,1,0,18.05,18.06A17.981,17.981,0,0,0,1190.54,5807.26Zm0,31.09a13.035,13.035,0,1,1,13.04-13.03A13.008,13.008,0,0,1,1190.54,5838.35Zm0-24.07a11.035,11.035,0,1,0,11.03,11.04A11.132,11.132,0,0,0,1190.54,5814.28Zm0,17.05a6.015,6.015,0,1,1,6.02-6.01A5.906,5.906,0,0,1,1190.54,5831.33Zm0-10.03a4.015,4.015,0,1,0,4.01,4.02A4.025,4.025,0,0,0,1190.54,5821.3Zm0,5.02a1.2,1.2,0,0,1-.8-0.2,0.95,0.95,0,0,1,0-1.4l15.04-15.05a0.967,0.967,0,0,1,1.4,0,0.978,0.978,0,0,1,0,1.41l-15.04,15.04c0,0.2-.4.2-0.6,0.2h0Zm20.06-15.04h-5.02a0.953,0.953,0,0,1-1-1.01v-5.01c0-.2.2-0.6,0.2-0.8l7.02-7.02a2.537,2.537,0,0,1,1.2-.2,1.1,1.1,0,0,1,.6,1v4.01h4.02a1.1,1.1,0,0,1,1,.6,2.537,2.537,0,0,1-.2,1.2l-7.02,7.03C1211.2,5811.08,1210.8,5811.28,1210.6,5811.28Zm-4.02-2.01h3.62l5.01-5.01h-2.61a0.953,0.953,0,0,1-1-1.01v-2.61l-5.02,5.02v3.61Z" transform="translate(-1165.69 -5791.75)"/>
</svg>
