<?xml version="1.0" encoding="utf-8"?>
<!-- Generator: Adobe Illustrator 24.3.0, SVG Export Plug-In . SVG Version: 6.00 Build 0)  -->
<svg version="1.1" id="Layer_1" xmlns="http://www.w3.org/2000/svg" xmlns:xlink="http://www.w3.org/1999/xlink" x="0px" y="0px"
	 viewBox="0 0 73 63" style="enable-background:new 0 0 73 63;" xml:space="preserve">
<style type="text/css">
	.st0{fill-rule:evenodd;clip-rule:evenodd;fill:#FEF4ED;}
	.st1{fill-rule:evenodd;clip-rule:evenodd;fill:#202932;}
</style>
<path class="st0" d="M65.3,6.2C59.9-0.3,49-1.4,42.3,4c-4,3.2-6.3,8.2-10.5,11.1c-7,4.9-17.3,3-24.2,8.1c-5.3,4.1-7.1,11.4-4.3,17.5
	C9.8,54,25.5,61.2,40.6,61.9c4.1,0,9.7-1.8,9-12.1c-0.3-3.7-0.5-7.5,1.1-10.6c2.5-4.8,8.5-6.5,12.6-10C69.9,23.6,70.8,12.8,65.3,6.2
	z"/>
<path class="st0" d="M70.9,15.8C67.5,7.9,57.2,3.7,49.2,7C47,8,44.9,9.2,43,10.7c-2.1,1.6-4.5,3-7,4c-4,1.3-8.4,0.8-12.6,0.4
	c-4.3-0.5-8.8-1-13,0.5c-6.4,2.5-10.2,9-9.3,15.8C3.3,44.6,15.1,56.9,31,62.4c1.1,0.3,2.2,0.5,3.3,0.5c1.4,0,2.7-0.3,3.9-1
	c2.5-1.4,4.2-4.3,5.3-8.7c0.8-3.6,1.6-7.2,4.1-9.8c2.4-2.4,5.6-3.2,9.1-4.1c2-0.4,3.9-1,5.8-1.8C70.2,34,74.3,23.7,70.9,15.8z
	 M62.2,37.2c-1.8,0.8-3.7,1.3-5.7,1.8c-3.4,0.8-6.9,1.7-9.3,4.2c-2.5,2.6-3.4,6.3-4.2,10c-1,4.2-2.7,7.1-5.1,8.4
	c-2.1,1.1-4.6,1.3-6.8,0.4C15.4,56.5,3.7,44.4,1.5,31.2c-0.9-6.6,2.9-12.9,9-15.3c2-0.7,4.1-1,6.2-0.9c2.2,0,4.4,0.2,6.6,0.5
	c4.3,0.5,8.7,1,12.8-0.4c2.6-1,5-2.3,7.1-4c1.9-1.4,4-2.6,6.1-3.6c7.7-3.2,17.8,0.9,21.1,8.6C73.8,23.7,69.8,33.7,62.2,37.2z"/>
<path class="st1" d="M23.1,35.2c-3.3-1.6-7.3-0.2-9,3.1c-1.6,3.3-0.2,7.3,3.1,9c3,1.4,6.6,0.5,8.5-2.3l6.3,3.2
	c-0.8,3.6,1.4,7.2,5.1,8s7.2-1.4,8-5.1c0.4-1.8,0.1-3.7-1-5.2l8.9-9.3c3,2.2,7.2,1.6,9.4-1.4c2.2-3,1.6-7.2-1.4-9.4
	C58.8,24,55.4,24,53,25.9l-9-9c2.3-2.9,1.8-7.1-1.2-9.4s-7.1-1.8-9.4,1.2c-1.2,1.6-1.7,3.7-1.3,5.6l-6,2.2c-1.7-3.3-5.7-4.6-9-2.9
	s-4.6,5.7-2.9,9c1.6,3.2,5.4,4.5,8.7,3.1l3.1,5.2L23.1,35.2z M20.2,46.3c-2.8,0-5-2.3-5-5c0-2.8,2.3-5,5-5c2.8,0,5,2.3,5,5l0,0
	C25.3,44,23,46.3,20.2,46.3z M26.6,43.5c0.9-2.6,0.1-5.6-2-7.4l2.4-3.7l7.3,12.2c-0.6,0.5-1.1,1.2-1.5,1.9L26.6,43.5z M38.7,19.4
	c1.5,0,2.9-0.5,4.1-1.4l9.1,9.1c-0.5,0.7-1,1.5-1.2,2.4l-5.3-0.7c0,0,0,0,0-0.1c0-3.7-3-6.7-6.7-6.7c-2.2,0-4.3,1.1-5.6,3l-1-0.5
	l3.7-5.7C36.7,19.2,37.7,19.4,38.7,19.4L38.7,19.4L38.7,19.4z M39.5,43v-7.7c2.7-0.3,4.9-2.3,5.6-4.9l5.3,0.7c0,0,0,0,0,0.1
	c0,1.5,0.5,3,1.5,4.2l-8.8,9.2C42.1,43.7,40.9,43.1,39.5,43L39.5,43z M38.7,23.6c2.8,0,5,2.3,5,5s-2.3,5-5,5s-5-2.3-5-5
	C33.7,25.9,35.9,23.6,38.7,23.6z M32.4,26.4c-1.2,3.5,0.6,7.3,4.1,8.5c0.5,0.2,0.9,0.3,1.4,0.3V43c-0.8,0.1-1.5,0.3-2.2,0.7L28,30.8
	l3.2-5L32.4,26.4z M38.7,54.7c-2.8,0-5-2.3-5-5c0-2.8,2.3-5,5-5c2.8,0,5,2.3,5,5C43.7,52.4,41.5,54.7,38.7,54.7z M57.2,26.1
	c2.8,0,5,2.3,5,5s-2.3,5-5,5c-2.8,0-5-2.3-5-5v0C52.1,28.4,54.4,26.1,57.2,26.1z M38.7,7.7c2.8,0,5,2.3,5,5s-2.3,5-5,5s-5-2.3-5-5
	C33.7,9.9,35.9,7.7,38.7,7.7z M32.7,15.8c0.4,0.8,1,1.5,1.7,2.1l-3.8,5.8l-4-2c0.4-1.2,0.5-2.5,0.2-3.7L32.7,15.8z M15.2,19.4
	c0-2.8,2.3-5,5-5s5,2.3,5,5s-2.3,5-5,5l0,0C17.5,24.5,15.2,22.2,15.2,19.4z M24.4,24.7c0.6-0.4,1.1-1,1.5-1.6l3.9,1.9L27,29.2
	L24.4,24.7z"/>
</svg>
