<svg xmlns="http://www.w3.org/2000/svg" width="56.281" height="58.69" viewBox="0 0 56.281 58.69">
  <defs>
    <style>
      .cls-1 {
        fill: #fee5f5;
      }

      .cls-1, .cls-2 {
        fill-rule: evenodd;
      }

      .cls-2 {
        fill: #202932;
      }
    </style>
  </defs>
  <path id="Shape_19_copy" data-name="Shape 19 copy" class="cls-1" d="M419.7,3560.34a14.993,14.993,0,0,0-10.264-20.65c-3.793-.91-7.986-0.37-11.417-2.21-4.865-2.62-6.748-9.29-11.926-11.21-3.771-1.41-8.079.29-11.112,2.93a19.669,19.669,0,0,0,2.569,31.59c2.467,1.53,5.444,2.68,6.771,5.26,1.5,2.91.278,6.46,0.779,9.7,0.785,5.07,6.02,8.68,11.163,8.72s9.962-2.83,13.412-6.63,7.772-12.89,10.025-17.5m-17.918,22.68c-4.085,0-7.957-2-9.725-5.35a19.758,19.758,0,0,1-1.334-3.66c-0.575-1.99-1.119-3.86-2.532-5.21-1.594-1.53-3.895-1.95-6.12-2.35-0.631-.12-1.282-0.24-1.907-0.38a19.884,19.884,0,0,1-12.863-29.32c1.818-3.15,5.258-6.48,9.509-6.48h0.212c3,0.08,5.568,1.78,8.054,3.42,2.162,1.43,4.4,2.91,6.908,3.32a18.049,18.049,0,0,0,7.09-.76,30.834,30.834,0,0,1,4.378-.85,15.21,15.21,0,0,1,16.655,16.4l-0.118.97c-0.658,5.4-1.757,14.42-3.668,18.89-2.284,5.33-6.159,9.24-10.631,10.73A12.587,12.587,0,0,1,401.783,3583.02Zm-24.972-52.37c-4.088,0-7.413,3.23-9.177,6.29a19.5,19.5,0,0,0,12.617,28.76c0.616,0.14,1.263.26,1.89,0.37,2.281,0.42,4.64.85,6.316,2.45,1.488,1.42,2.071,3.44,2.635,5.38a19.145,19.145,0,0,0,1.305,3.59c2.209,4.18,8.117,6.22,13.173,4.54,4.368-1.46,8.158-5.29,10.4-10.52,1.89-4.42,2.985-13.41,3.641-18.79l0.116-.95a14.827,14.827,0,0,0-16.237-15.99,30.5,30.5,0,0,0-4.323.84,18.374,18.374,0,0,1-7.244.77c-2.591-.43-4.861-1.93-7.057-3.38-2.553-1.68-4.966-3.28-7.852-3.35C376.945,3530.66,376.878,3530.65,376.811,3530.65Z" transform="translate(-364.688 -3525.78)"/>
  <path id="Forma_1" data-name="Forma 1" class="cls-2" d="M409.622,3570.12a1.17,1.17,0,0,0-1.468-.8l-1.962.6a9.988,9.988,0,0,1-7.507-.66,12.311,12.311,0,0,0-7.108-1.27l-2.89.34a14.621,14.621,0,0,0,2.7-7.4l0.012-.09a38.3,38.3,0,0,0,.059-5.06h7.683a1.175,1.175,0,1,0,0-2.35h-7.895a38.957,38.957,0,0,0-.834-4.64,21.289,21.289,0,0,1-.681-4.94,7.946,7.946,0,0,1,.552-2.9,7.273,7.273,0,0,1,4.018-4.09,8.023,8.023,0,0,1,3.137-.6c4.1,0,6.579,1.87,7.342,5.54a1.176,1.176,0,0,0,2.3-.48,8.925,8.925,0,0,0-3.278-5.49,10.234,10.234,0,0,0-6.379-1.91,10.474,10.474,0,0,0-4.053.79,9.626,9.626,0,0,0-5.287,5.38,10.348,10.348,0,0,0-.717,3.77,24.281,24.281,0,0,0,.752,5.5,37.262,37.262,0,0,1,.752,4.08h-7.589a1.175,1.175,0,1,0,0,2.35H389.1a37.506,37.506,0,0,1-.047,4.88l-0.011.09a12.39,12.39,0,0,1-2.35,6.33l-1.5,2.05a1.183,1.183,0,0,0,1.093,1.87l5.58-.67a10.068,10.068,0,0,1,5.757,1.03,12.288,12.288,0,0,0,9.269.81l1.962-.59A1.165,1.165,0,0,0,409.622,3570.12Z" transform="translate(-364.688 -3525.78)"/>
</svg>
