<?xml version="1.0" encoding="utf-8"?>
<!-- Generator: Adobe Illustrator 24.3.0, SVG Export Plug-In . SVG Version: 6.00 Build 0)  -->
<svg version="1.1" id="Layer_1" xmlns="http://www.w3.org/2000/svg" xmlns:xlink="http://www.w3.org/1999/xlink" x="0px" y="0px"
	 viewBox="0 0 73 63" style="enable-background:new 0 0 73 63;" xml:space="preserve">
<style type="text/css">
	.st0{fill-rule:evenodd;clip-rule:evenodd;fill:#FEF4ED;}
	.st1{fill-rule:evenodd;clip-rule:evenodd;fill:#202932;}
</style>
<path class="st0" d="M65.3,6.2C59.9-0.3,49-1.4,42.3,4c-4,3.2-6.3,8.2-10.5,11.1c-7,4.9-17.3,3-24.2,8.1c-5.3,4.1-7.1,11.4-4.3,17.5
	C9.8,54,25.5,61.2,40.6,61.9c4.1,0,9.7-1.8,9-12.1c-0.3-3.7-0.5-7.5,1.1-10.6c2.5-4.8,8.5-6.5,12.6-10C69.9,23.6,70.8,12.8,65.3,6.2
	z"/>
<path class="st0" d="M70.9,15.8C67.5,7.9,57.2,3.7,49.2,7C47,8,44.9,9.2,43,10.7c-2.1,1.6-4.5,3-7,4c-4,1.3-8.4,0.8-12.6,0.4
	c-4.3-0.5-8.8-1-13,0.5c-6.4,2.5-10.2,9-9.3,15.8C3.3,44.6,15.1,56.9,31,62.4c1.1,0.3,2.2,0.5,3.3,0.5c1.4,0,2.7-0.3,3.9-1
	c2.5-1.4,4.2-4.3,5.3-8.7c0.8-3.6,1.6-7.2,4.1-9.8c2.4-2.4,5.6-3.2,9.1-4.1c2-0.4,3.9-1,5.8-1.8C70.2,34,74.3,23.7,70.9,15.8z
	 M62.2,37.2c-1.8,0.8-3.7,1.3-5.7,1.8c-3.4,0.8-6.9,1.7-9.3,4.2c-2.5,2.6-3.4,6.3-4.2,10c-1,4.2-2.7,7.1-5.1,8.4
	c-2.1,1.1-4.6,1.3-6.8,0.4C15.4,56.5,3.7,44.4,1.5,31.2c-0.9-6.6,2.9-12.9,9-15.3c2-0.7,4.1-1,6.2-0.9c2.2,0,4.4,0.2,6.6,0.5
	c4.3,0.5,8.7,1,12.8-0.4c2.6-1,5-2.3,7.1-4c1.9-1.4,4-2.6,6.1-3.6c7.7-3.2,17.8,0.9,21.1,8.6C73.8,23.7,69.8,33.7,62.2,37.2z"/>
<path class="st1" d="M18.6,27.6c0-7.2,5.2-13.4,12.3-14.6c5.4-0.9,11.3,2,14.2,7c1,1.8,1.7,3.8,2.1,5.9c0.9,3.6,1.9,7.2,2.7,10.8
	c1.8,7.9-3.2,15.8-11.2,17.6c-0.2,0-0.4,0.1-0.7,0.1c-5.7,0.9-11.8-2.2-14.7-7.6c-0.9-1.8-1.5-3.8-1.9-5.7
	c-0.9-3.6-1.9-7.3-2.7-10.9C18.7,29.4,18.6,28.5,18.6,27.6z M28.8,15.8c-0.2,0.1-0.4,0.1-0.5,0.2c-5.4,2.4-8.5,8.3-7.3,14.1
	c1.1,4.6,2.3,9.2,3.6,13.7c1.8,6.1,8,9.7,14.2,8.4c6.5-1.6,10.6-8,9.3-14.6c-1-4.5-2.2-8.9-3.4-13.3c-1.5-5.9-7.1-9.8-13.1-9.2
	c-0.3,0-0.5,0.1-0.7,0.1c1.1,4.3,2.2,8.6,3.3,12.8c0.3,0.5,0.1,1.2-0.5,1.5c-0.1,0-0.1,0.1-0.2,0.1c-0.6,0.2-1.1-0.2-1.3-1.1
	c-0.4-1.7-0.9-3.4-1.3-5C30.1,21,29.4,18.4,28.8,15.8L28.8,15.8z M15.1,12.9c0.3,0.1,0.6,0.3,0.8,0.5c1.2,1.3,2.4,2.5,3.6,3.8
	c0.4,0.4,0.4,1,0,1.5s-1,0.4-1.5,0c0,0,0,0-0.1-0.1c-1.2-1.2-2.4-2.5-3.6-3.7c-0.4-0.3-0.5-0.8-0.2-1.2
	C14.5,13.3,14.8,13.1,15.1,12.9z M10.7,21c0.1,0,0.3,0.1,0.5,0.1c1.5,0.4,3,0.8,4.5,1.3c0.6,0.1,1,0.6,0.9,1.2c0,0,0,0.1,0,0.1
	c-0.1,0.6-0.7,0.9-1.3,0.8c0,0-0.1,0-0.1,0c-1.6-0.4-3.1-0.9-4.7-1.3c-0.6-0.1-0.9-0.6-0.8-1.2c0,0,0,0,0,0
	C9.8,21.4,10.2,21,10.7,21z M16.4,30.2c-0.2,0.3-0.4,0.5-0.7,0.7c-1.7,0.5-3.3,1-5,1.4c-0.5,0.1-1.1-0.2-1.2-0.7c0,0,0,0,0,0
	c-0.2-0.5,0.1-1,0.6-1.2c0,0,0,0,0.1,0c1.7-0.5,3.4-1,5.1-1.4c0.6-0.1,1.1,0.4,1.2,0.9C16.4,29.9,16.4,30.1,16.4,30.2z"/>
<path class="st1" d="M57.4,14L57.4,14L57.4,14c-0.1,0.1-0.1,0.1-0.1,0.1l0,0c-0.3,0.6-0.9,1-1.5,1.2c-0.2,0.1-0.5,0.2-0.8,0.3
	s-0.5,0.2-0.8,0.3c-0.2,0.1-0.4,0.2-0.6,0.3c-0.1,0.1-0.2,0.1-0.3,0.2l-0.4,0.3l0.1-0.5c0,0,0-0.1,0-0.1c0-0.2,0.1-0.4,0-0.7
	c0-0.2-0.1-0.4-0.1-0.6c-0.1-0.2-0.2-0.5-0.3-0.7c-0.1-0.1-0.1-0.2-0.2-0.3l-0.2-0.2l1.6-1c0,0,0,0,0.1-0.1c0.2-0.2,0.2-0.5,0-0.7
	c-0.1-0.1-0.3-0.2-0.5-0.1c0,0,0,0,0,0l0,0l0,0l0,0l-1.8,1l-0.1-0.1c-0.4-0.4-0.8-0.8-1.2-1.3c-0.1-0.2-0.2-0.4-0.2-0.6
	c0-0.2,0-0.4,0-0.6c0-0.2,0.1-0.4,0.3-0.6c0.1-0.2,0.3-0.3,0.5-0.5c0.6-0.5,1.6-0.4,2.1,0.2c0,0.1,0.1,0.1,0.1,0.2l0,0l0,0v0
	c0,0,0,0,0.1,0.1c0.2,0.3,0.6,0.3,0.9,0.1c0.2-0.2,0.3-0.5,0.2-0.8l0,0l0-0.1l0,0l0,0c-0.2-0.3-0.5-0.6-0.8-0.8
	c-0.3-0.2-0.6-0.3-0.9-0.4c-0.3-0.1-0.7,0-1,0c-0.4,0.1-0.7,0.2-1.1,0.4c-0.4,0.2-0.7,0.5-1,0.8c-0.2,0.3-0.4,0.6-0.5,0.9
	c-0.1,0.3-0.1,0.7-0.1,1.1c0.1,0.4,0.2,0.8,0.4,1.1c0.1,0.2,0.3,0.4,0.4,0.6c0.1,0.2,0.3,0.4,0.6,0.6l0.2,0.2l-0.9,0.5
	c-0.2,0.1-0.3,0.4-0.1,0.7c0.1,0.2,0.4,0.3,0.6,0.2l0,0l1.1-0.7l0.1,0.1c0.2,0.2,0.3,0.4,0.4,0.6c0.2,0.3,0.3,0.5,0.4,0.8
	c0.1,0.2,0.1,0.5,0.1,0.7c0,0.2,0,0.5-0.1,0.7c-0.1,0.2-0.2,0.4-0.3,0.6c-0.3,0.2-0.4,0.6-0.2,1c0.2,0.2,0.6,0.3,0.8,0.1
	c0,0,0,0,0,0c0.4-0.7,1-1.3,1.7-1.7c0.1-0.1,0.2-0.1,0.3-0.1c0.2-0.1,0.3-0.1,0.5-0.2s0.4-0.1,0.6-0.2s0.4-0.1,0.6-0.2
	s0.3-0.1,0.5-0.2c0.1,0,0.2-0.1,0.3-0.1l0,0c0.4-0.3,0.8-0.6,1.1-1c0-0.1,0.2-0.2,0.2-0.2c0.2-0.2,0.3-0.6,0-0.8c0,0,0,0,0,0
	C58,13.9,57.6,13.8,57.4,14z"/>
<path id="Shape_55_copy" class="st1" d="M62.9,32.2L62.9,32.2L62.9,32.2c-0.1,0-0.1,0.1-0.2,0.1l0,0c-0.5,0.5-1.2,0.7-1.9,0.7
	c-0.2,0-0.5,0-0.8,0s-0.6,0-0.8,0c-0.2,0-0.4,0-0.7,0.1c-0.1,0-0.2,0.1-0.3,0.1l-0.5,0.1l0.3-0.4c0,0,0-0.1,0.1-0.1
	c0.1-0.2,0.2-0.4,0.3-0.6c0.1-0.2,0.1-0.4,0.1-0.7c0-0.2,0-0.5-0.1-0.7c0-0.1-0.1-0.2-0.1-0.4l-0.1-0.2l1.8-0.4c0,0,0.1,0,0.1,0
	c0.2-0.1,0.3-0.4,0.2-0.6c-0.1-0.2-0.3-0.3-0.4-0.3c0,0,0,0,0,0l0,0h0l0,0l-2,0.4l-0.1-0.1c-0.3-0.5-0.5-1.1-0.7-1.6
	c0-0.2,0-0.4,0-0.7c0-0.2,0.1-0.4,0.2-0.6c0.1-0.2,0.3-0.3,0.4-0.5c0.2-0.1,0.4-0.2,0.7-0.3c0.8-0.3,1.6,0.1,1.9,0.9
	c0,0.1,0,0.1,0.1,0.2l0,0l0,0v0c0,0,0,0.1,0,0.1c0.1,0.3,0.5,0.5,0.8,0.4c0.3-0.1,0.4-0.4,0.4-0.7l0,0l0-0.1c0,0,0,0,0,0v0
	c-0.1-0.4-0.3-0.7-0.5-1c-0.2-0.3-0.5-0.5-0.7-0.6c-0.3-0.2-0.6-0.3-1-0.3c-0.4,0-0.8,0-1.1,0.1c-0.4,0.1-0.8,0.2-1.2,0.4
	c-0.3,0.2-0.6,0.4-0.8,0.7c-0.2,0.3-0.4,0.6-0.4,1c-0.1,0.4-0.1,0.8,0,1.2c0.1,0.2,0.1,0.5,0.2,0.7c0.1,0.2,0.2,0.5,0.3,0.7l0.1,0.2
	l-1,0.2c-0.3,0.1-0.4,0.3-0.3,0.6c0.1,0.2,0.3,0.4,0.5,0.3h0l1.3-0.3l0.1,0.1c0.1,0.2,0.2,0.4,0.2,0.7c0.1,0.3,0.1,0.6,0.1,0.9
	c0,0.2-0.1,0.5-0.1,0.7c-0.1,0.2-0.2,0.4-0.3,0.6c-0.1,0.2-0.3,0.4-0.5,0.5c-0.4,0.1-0.6,0.5-0.5,0.8c0.1,0.3,0.4,0.4,0.7,0.3
	c0,0,0,0,0,0c0.6-0.5,1.4-0.9,2.2-1c0.1,0,0.2,0,0.4,0c0.2,0,0.3,0,0.5,0s0.4,0,0.6,0s0.4,0,0.6,0s0.4,0,0.5,0c0.1,0,0.2,0,0.4,0
	l0,0c0.5-0.1,1-0.3,1.4-0.6c0.1,0,0.3-0.2,0.3-0.2c0.3-0.1,0.4-0.5,0.3-0.8c0,0,0,0,0,0C63.5,32.2,63.2,32.1,62.9,32.2z"/>
<path id="Shape_55_copy_2" class="st1" d="M62.2,51L62.2,51L62.2,51c-0.1,0-0.1,0-0.2,0l0,0c-0.6,0.3-1.3,0.4-2,0.2
	c-0.2-0.1-0.5-0.1-0.8-0.2s-0.6-0.1-0.8-0.2c-0.2-0.1-0.4-0.1-0.6-0.1c-0.1,0-0.2,0-0.3,0l-0.5,0l0.4-0.3c0,0,0.1-0.1,0.1-0.1
	c0.2-0.2,0.3-0.3,0.4-0.5c0.1-0.2,0.2-0.4,0.2-0.6c0.1-0.2,0.1-0.5,0.1-0.7c0-0.1,0-0.2,0-0.4l0-0.2l1.9,0.1c0,0,0.1,0,0.1,0
	c0.3-0.1,0.4-0.3,0.4-0.6c0-0.2-0.2-0.3-0.4-0.4c0,0,0,0,0,0h0l-2-0.1l0-0.1c-0.2-0.6-0.2-1.1-0.2-1.7c0-0.2,0.1-0.4,0.2-0.6
	c0.1-0.2,0.2-0.4,0.4-0.5c0.2-0.1,0.3-0.3,0.5-0.3c0.2-0.1,0.5-0.1,0.7-0.1c0.8-0.1,1.5,0.6,1.6,1.4c0,0.1,0,0.2,0,0.2c0,0,0,0,0,0
	v0v0c0,0,0,0.1,0,0.1c0,0.3,0.3,0.6,0.7,0.6c0.3,0,0.5-0.2,0.6-0.5l0,0l0-0.1c0,0,0,0,0,0v0c0-0.4-0.1-0.7-0.2-1.1
	c-0.1-0.3-0.3-0.6-0.6-0.8c-0.2-0.2-0.5-0.4-0.9-0.5c-0.4-0.1-0.7-0.2-1.1-0.2c-0.4,0-0.8,0-1.2,0.1c-0.4,0.1-0.7,0.3-1,0.5
	c-0.3,0.2-0.5,0.5-0.7,0.8c-0.2,0.4-0.3,0.7-0.3,1.1c0,0.2,0,0.5,0,0.7c0,0.2,0.1,0.5,0.1,0.8l0.1,0.2l-1.1-0.1
	c-0.3,0-0.5,0.2-0.5,0.5c0,0.2,0.2,0.4,0.4,0.5l0,0l1.3,0.1l0,0.1c0,0.2,0,0.5,0,0.7c0,0.3-0.1,0.6-0.2,0.9
	c-0.1,0.2-0.2,0.5-0.3,0.7c-0.1,0.2-0.3,0.4-0.5,0.5c-0.2,0.1-0.4,0.3-0.6,0.4c-0.4,0-0.7,0.3-0.7,0.7c0,0.3,0.3,0.5,0.6,0.5
	c0,0,0,0,0,0c0.8-0.3,1.6-0.5,2.4-0.4c0.1,0,0.2,0,0.4,0.1c0.2,0,0.3,0.1,0.5,0.1s0.4,0.1,0.6,0.2s0.4,0.1,0.6,0.2s0.3,0.1,0.5,0.1
	c0.1,0,0.2,0.1,0.4,0.1h0c0.5,0,1-0.1,1.5-0.2c0.1,0,0.3-0.1,0.3-0.1c0.3,0,0.6-0.4,0.5-0.7c0,0,0,0,0,0C62.7,51.2,62.5,51,62.2,51z
	"/>
</svg>
