<svg xmlns="http://www.w3.org/2000/svg" width="71.124" height="62.38" viewBox="0 0 71.124 62.38">
  <defs>
    <style>
      .cls-1 {
        fill: #fef4ed;
      }

      .cls-1, .cls-2 {
        fill-rule: evenodd;
      }

      .cls-2 {
        fill: #202932;
      }
    </style>
  </defs>
  <path class="cls-1" d="M439.321,3555.22c-5.47-6.55-16.361-7.6-22.992-2.24-3.971,3.21-6.318,8.16-10.494,11.1-7.024,4.94-17.311,2.99-24.245,8.06a14.522,14.522,0,0,0-4.342,17.53c6.5,13.31,22.209,20.53,37.373,21.23,4.069,0.02,9.656-1.76,9.049-12.1-0.258-3.72-.5-7.49,1.138-10.63,2.509-4.8,8.486-6.45,12.6-9.98C443.884,3572.64,444.79,3561.76,439.321,3555.22Zm-31.063,56.7a11.147,11.147,0,0,1-3.256-.52c-15.939-5.55-27.665-17.79-29.882-31.18a14.852,14.852,0,0,1,9.323-15.8c4.133-1.47,8.626-.95,12.972-0.45,4.221,0.48,8.585.99,12.574-.35a28.758,28.758,0,0,0,7.022-3.97,33.94,33.94,0,0,1,6.2-3.67c7.95-3.27,18.281.93,21.674,8.82h0c3.392,7.88-.671,18.25-8.525,21.75a35.724,35.724,0,0,1-5.762,1.8c-3.468.87-6.744,1.7-9.1,4.12-2.453,2.52-3.279,6.2-4.078,9.76-1.028,4.35-2.8,7.27-5.277,8.69A7.636,7.636,0,0,1,408.258,3611.92Zm-17.506-48.03a18.343,18.343,0,0,0-6.163.94,14.4,14.4,0,0,0-9.042,15.32c2.192,13.24,13.806,25.34,29.588,30.84a8.389,8.389,0,0,0,6.787-.44c2.367-1.36,4.073-4.2,5.071-8.42,0.812-3.62,1.652-7.35,4.189-9.96,2.446-2.51,5.935-3.39,9.309-4.24a34.358,34.358,0,0,0,5.692-1.78c7.65-3.4,11.608-13.5,8.3-21.18h0c-3.305-7.69-13.372-11.78-21.111-8.59a33.26,33.26,0,0,0-6.117,3.63,28.982,28.982,0,0,1-7.131,4.01c-4.084,1.38-8.5.87-12.763,0.38A58.822,58.822,0,0,0,390.752,3563.89Z" transform="translate(-374.938 -3549.56)"/>
  <path class="cls-2" d="M416.993,3578.28H398.66v8.5h9.261a8.375,8.375,0,0,1-8.127,5.66,9.442,9.442,0,1,1,0-18.88,8.276,8.276,0,0,1,6.048,2.26l0.661,0.66,6.332-6.32-0.756-.66c-2.929-2.93-7.182-4.44-12.285-4.44a17.941,17.941,0,1,0,0,35.88c9.356,0,16.065-5.48,17.293-14.35a22.03,22.03,0,0,0,.284-3.59,25.182,25.182,0,0,0-.284-3.97Zm-1.7,8.03c-1.228,8.02-6.993,12.74-15.5,12.74a16.063,16.063,0,1,1,10.3-28.89l-3.685,3.68a10.114,10.114,0,0,0-6.615-2.17,11.331,11.331,0,1,0-.095,22.66,10.334,10.334,0,0,0,10.3-8.31l0.283-1.13H400.55v-4.72h14.837a26.885,26.885,0,0,1,.188,2.83A18.8,18.8,0,0,1,415.292,3586.31Zm17.388-8.03v-5.67h-6.615v5.67H420.4v6.61h5.67v5.66h6.615v-5.66h5.67v-6.61h-5.67Zm3.78,4.72h-5.67v5.67h-2.835V3583h-5.67v-2.83h5.67v-5.67h2.835v5.67h5.67V3583Z" transform="translate(-374.938 -3549.56)"/>
</svg>
