<svg xmlns="http://www.w3.org/2000/svg" width="63.94" height="71.47" viewBox="0 0 63.94 71.47">
  <defs>
    <style>
      .cls-1 {
        fill: #e2f4f7;
      }

      .cls-1, .cls-2 {
        fill-rule: evenodd;
      }

      .cls-2 {
        fill: #202932;
      }
    </style>
  </defs>
  <path id="Shape_18_copy" data-name="Shape 18 copy" class="cls-1" d="M1197.47,3692.75c-4.75-2.14-10.54-4.23-14.88-1.35-4.69,3.11-4.6,10.11-2.56,15.35s5.48,10.09,5.87,15.69c0.37,5.49-2.28,10.68-3.67,16s-1.03,12.01,3.59,15.02c4.07,2.65,9.43,1.23,14.05-.26,14.53-4.72,42.26-8.32,39.44-29.34C1236.79,3705.04,1211.83,3699.22,1197.47,3692.75Zm16.43,57.17a137.11,137.11,0,0,1-15.68-1.22c-2.8-.33-5.45-0.64-7.81-0.81-4.95-.35-10.47-1.07-13.3-5.14-3.3-4.75-.8-11.35,2.34-15.56,0.98-1.3,2.07-2.57,3.12-3.8,2.49-2.92,5.07-5.93,6.28-9.57,1.18-3.59.92-7.49,0.68-11.25-0.12-1.78-.24-3.62-0.21-5.42,0.09-5.71,2.75-12.36,8.36-13.5,5.12-1.04,9.71,2.91,13.52,6.91,1.96,2.05,4.23,4.2,6.65,6.49,10.86,10.27,24.38,23.06,20.44,38.27C1235.22,3747.16,1224.9,3749.92,1213.9,3749.92Zm-14.56-65.93a7.652,7.652,0,0,0-1.56.16c-5.34,1.08-7.87,7.5-7.96,13.01-0.02,1.77.1,3.6,0.21,5.37,0.25,3.82.51,7.76-.7,11.44-1.23,3.74-3.85,6.8-6.38,9.75-1.04,1.22-2.12,2.49-3.09,3.78-3.05,4.07-5.48,10.43-2.33,14.96,2.7,3.89,8.08,4.58,12.92,4.92,2.37,0.17,5.02.48,7.83,0.81,15.63,1.85,35.08,4.14,39.52-13,3.86-14.91-9.54-27.59-20.3-37.78-2.42-2.28-4.7-4.44-6.67-6.5h0C1207.51,3687.43,1203.61,3683.99,1199.34,3683.99Z" transform="translate(-1175.56 -3683.47)"/>
  <path class="cls-2" d="M1189.77,3714.86a5.265,5.265,0,1,1,5.22,5.28A5.267,5.267,0,0,1,1189.77,3714.86Zm5.3-3.15a3.165,3.165,0,1,0,3.13,3.18A3.2,3.2,0,0,0,1195.07,3711.71Zm24.31-3.87a5.27,5.27,0,1,1-5.3-5.25A5.256,5.256,0,0,1,1219.38,3707.84Zm-2.1,0a3.165,3.165,0,1,0-3.13,3.18A3.2,3.2,0,0,0,1217.28,3707.84Zm-15.01,17.14a5.265,5.265,0,1,1,5.3,5.25A5.269,5.269,0,0,1,1202.27,3724.98Zm2.1-.03a3.16,3.16,0,1,0,3.15-3.15A3.184,3.184,0,0,0,1204.37,3724.95Zm-3.36-3.94a6.921,6.921,0,0,0-1.93-.44c-2.49-.06-4.98-0.06-7.48-0.06a7.508,7.508,0,0,0-1.33.14,6.882,6.882,0,0,0-5.61,6.38c-0.06,2.29-.04,4.58-0.02,6.86a1.777,1.777,0,0,0,1.9,1.87c3,0.02,6,.01,9,0a1.517,1.517,0,0,0,.66-0.15,0.981,0.981,0,0,0,.51-1.1,1.034,1.034,0,0,0-1.08-.83c-1.05-.01-2.11,0-3.17,0h-2.08l-2.54-.03h-1.09c-0.01-.09-0.03-0.16-0.03-0.23,0-2.05-.03-4.11.02-6.17a4.742,4.742,0,0,1,4.55-4.61c2.01-.06,4.02-0.01,6.04-0.01a8.275,8.275,0,0,1,3.04.33,1,1,0,0,0,1.31-.63A1.019,1.019,0,0,0,1201.01,3721.01Zm23.47-.94a6.84,6.84,0,0,0-6.4-6.54c-2.51-.1-5.02-0.05-7.52-0.05a6.181,6.181,0,0,0-3.65,1.07,13.978,13.978,0,0,0-1.89,1.72,0.974,0.974,0,0,0-.09,1.21,0.939,0.939,0,0,0,1.08.46,2.1,2.1,0,0,0,.81-0.61,4.666,4.666,0,0,1,3.52-1.72c2.4-.04,4.81-0.04,7.21-0.01a4.8,4.8,0,0,1,4.85,4.9c0.01,1.91,0,3.82,0,5.74,0,0.12-.01.25-0.02,0.39h-1.54v0.01h-2.1v0.01c-1.74,0-3.42-.01-5.1,0a2.414,2.414,0,0,0-.8.15,0.98,0.98,0,0,0-.5,1.14,1.04,1.04,0,0,0,1.14.8c3.04,0,6.08.01,9.13,0a1.787,1.787,0,0,0,1.88-1.89C1224.5,3724.59,1224.52,3722.33,1224.48,3720.07Zm-6.61,16.94a6.8,6.8,0,0,0-6.38-6.37c-2.48-.09-4.96-0.05-7.43-0.04a6.711,6.711,0,0,0-1.55.19,6.934,6.934,0,0,0-5.41,6.88c-0.01,1.94.03,3.88-.01,5.82a2.135,2.135,0,0,0,1.47,2.36h17.91a1.961,1.961,0,0,0,1.45-1.94C1217.91,3741.61,1217.96,3739.31,1217.87,3737.01Zm-2.06,6.53a1,1,0,0,1-.04.2h-1.89v-0.02h-1.73v0.01h-8.65v0.01h-2.72v-0.01h-1.53a1.046,1.046,0,0,1-.04-0.17c0.01-2.13-.04-4.26.05-6.38a4.678,4.678,0,0,1,4.55-4.45c2.49-.06,4.99-0.06,7.48,0a4.7,4.7,0,0,1,4.49,4.47C1215.85,3739.31,1215.8,3741.43,1215.81,3743.54Z" transform="translate(-1175.56 -3683.47)"/>
</svg>
