<svg xmlns="http://www.w3.org/2000/svg" width="73.125" height="11.094" viewBox="0 0 73.125 11.094">
  <defs>
    <style>
      .cls-1 {
        fill: #f8049c;
        fill-rule: evenodd;
      }
    </style>
  </defs>
  <path id="Shape_356_1" data-name="Shape 356 1" class="cls-1" d="M18.493,392.95h0l4.515,4.639a0.846,0.846,0,0,0,1.222,0,0.912,0.912,0,0,0,0-1.262L21.2,393.21H90.5a0.892,0.892,0,0,0,0-1.784H21.2l3.032-3.115a0.912,0.912,0,0,0,0-1.261,0.844,0.844,0,0,0-1.222,0l-4.515,4.639s0,0,0,0A0.912,0.912,0,0,0,18.493,392.95Z" transform="translate(-18.25 -386.781)"/>
</svg>
