<svg xmlns="http://www.w3.org/2000/svg" width="19.97" height="20" viewBox="0 0 19.97 20">
  <defs>
    <style>
      .cls-1 {
        fill: #6ea4f4;
        fill-rule: evenodd;
      }
    </style>
  </defs>
  <path id="Shape_318_1" data-name="Shape 318 1" class="cls-1" d="M1093.53,6574.47a0.375,0.375,0,0,1-.1.01,0.552,0.552,0,0,1-.56-0.47,9.692,9.692,0,0,0-7.89-7.88,0.571,0.571,0,0,1-.47-0.66,0.564,0.564,0,0,1,.65-0.46,10.813,10.813,0,0,1,8.83,8.81A0.554,0.554,0,0,1,1093.53,6574.47Zm-8.52-5.83a6.549,6.549,0,0,1,5.36,5.35,0.581,0.581,0,0,1-.47.66h-0.1a0.567,0.567,0,0,1-.56-0.47,5.424,5.424,0,0,0-4.43-4.42A0.569,0.569,0,1,1,1085.01,6568.64Zm-0.15,9.68c0.12,0.08.27,0.15,0.42,0.23,0.1,0.05.21,0.11,0.32,0.17l1.34-1.33a2.038,2.038,0,0,1,1.45-.65,1.941,1.941,0,0,1,1.42.65l2.33,2.33a2.039,2.039,0,0,1,.65,1.44,2.089,2.089,0,0,1-.64,1.46c-0.18.19-.37,0.38-0.55,0.55a10.47,10.47,0,0,0-.74.76l-0.02.02a3.171,3.171,0,0,1-2.44,1.05,2.26,2.26,0,0,1-.26-0.01,10.262,10.262,0,0,1-3.72-1.1,19.807,19.807,0,0,1-6.63-5.17,18.354,18.354,0,0,1-3.23-5.39,7.392,7.392,0,0,1-.54-3.13,3.049,3.049,0,0,1,.91-1.97l1.44-1.44,0.01-.01a2.045,2.045,0,0,1,1.44-.62,1.979,1.979,0,0,1,1.41.62c0.28,0.25.54,0.52,0.8,0.78,0.13,0.14.26,0.27,0.39,0.4l1.16,1.16a1.945,1.945,0,0,1,0,2.92c-0.12.11-.24,0.24-0.36,0.36-0.31.31-.63,0.64-0.98,0.96a8.644,8.644,0,0,0,1.14,1.8A14.591,14.591,0,0,0,1084.86,6578.32Zm-4.38-2.45a9.339,9.339,0,0,1-1.36-2.23,0.227,0.227,0,0,1-.01-0.04,0.847,0.847,0,0,1,.22-0.96l0.02-.02c0.37-.33.7-0.66,1.06-1.03,0.12-.11.24-0.24,0.36-0.36a0.8,0.8,0,0,0,0-1.31l-1.15-1.15c-0.14-.14-0.27-0.27-0.4-0.41-0.26-.27-0.51-0.51-0.76-0.76a0.02,0.02,0,0,1-.02-0.01,0.907,0.907,0,0,0-.61-0.29,0.949,0.949,0,0,0-.65.3l-1.44,1.44a1.925,1.925,0,0,0-.58,1.25,5.954,5.954,0,0,0,.47,2.64,16.978,16.978,0,0,0,3.05,5.06,18.575,18.575,0,0,0,6.24,4.88,9.1,9.1,0,0,0,3.29.99h0.2a2.029,2.029,0,0,0,1.59-.67c0.26-.3.54-0.58,0.81-0.84,0.18-.18.35-0.34,0.52-0.52a0.831,0.831,0,0,0-.01-1.32l-2.33-2.32v-0.01a0.864,0.864,0,0,0-.61-0.31,0.921,0.921,0,0,0-.64.32l-1.45,1.44a0.9,0.9,0,0,1-.64.29,0.955,0.955,0,0,1-.42-0.1,0.219,0.219,0,0,0-.05-0.03,3.97,3.97,0,0,0-.42-0.23,5.364,5.364,0,0,1-.52-0.28,15.645,15.645,0,0,1-3.75-3.41h-0.01Zm10.85,5.96C1091.32,6581.84,1091.32,6581.83,1091.33,6581.83Z" transform="translate(-1074.03 -6565)"/>
</svg>
