<svg xmlns="http://www.w3.org/2000/svg" width="63.938" height="71.47" viewBox="0 0 63.938 71.47">
  <defs>
    <style>
      .cls-1 {
        fill: #e2f4f7;
      }

      .cls-1, .cls-2 {
        fill-rule: evenodd;
      }

      .cls-2 {
        fill: #202932;
      }
    </style>
  </defs>
  <path id="Shape_18_copy_2" data-name="Shape 18 copy 2" class="cls-1" d="M786.475,5790.75c-4.752-2.14-10.541-4.23-14.885-1.35-4.689,3.11-4.6,10.11-2.562,15.35s5.486,10.09,5.867,15.69c0.375,5.49-2.273,10.67-3.665,16s-1.027,12.01,3.593,15.02c4.063,2.65,9.431,1.23,14.046-.26,14.528-4.72,42.262-8.32,39.444-29.34C825.791,5803.04,800.825,5797.22,786.475,5790.75Zm16.426,57.17a137.074,137.074,0,0,1-15.68-1.22c-2.8-.33-5.449-0.64-7.806-0.81-4.955-.35-10.478-1.07-13.3-5.14-3.3-4.75-.8-11.35,2.342-15.55,0.976-1.31,2.064-2.58,3.116-3.81,2.5-2.92,5.077-5.93,6.278-9.57,1.184-3.59.928-7.49,0.68-11.25-0.118-1.78-.239-3.62-0.21-5.42,0.092-5.7,2.75-12.36,8.366-13.5,5.118-1.04,9.7,2.91,13.518,6.91,1.956,2.05,4.235,4.21,6.647,6.49,10.863,10.27,24.383,23.06,20.444,38.27C824.223,5845.16,813.9,5847.92,802.9,5847.92Zm-14.557-65.93a7.581,7.581,0,0,0-1.56.16c-5.342,1.08-7.871,7.5-7.96,13.01-0.028,1.77.092,3.6,0.209,5.37,0.251,3.82.511,7.76-.7,11.44-1.233,3.74-3.847,6.79-6.375,9.75-1.047,1.22-2.129,2.48-3.095,3.78-3.044,4.07-5.481,10.43-2.331,14.96,2.7,3.89,8.085,4.58,12.922,4.92,2.37,0.17,5.023.48,7.831,0.81,15.628,1.85,35.078,4.14,39.517-13,3.865-14.91-9.534-27.59-20.3-37.78-2.417-2.28-4.7-4.44-6.665-6.5h0C796.515,5785.43,792.608,5781.99,788.344,5781.99Z" transform="translate(-764.562 -5781.47)"/>
  <path class="cls-2" d="M823.888,5827.51l-7.7-7.69a16.674,16.674,0,0,0,.668-19.23,0.752,0.752,0,0,0-1.254.83,15.181,15.181,0,1,1-1.96-2.4l0.041,0.04a0.756,0.756,0,0,0,1.061,0,0.748,0.748,0,0,0,0-1.06l-0.043-.04a16.667,16.667,0,0,0-23.557,0c-0.2.2-.4,0.41-0.593,0.62H774.074a0.753,0.753,0,0,0-.75.75v3.32a0.75,0.75,0,0,0,1.5,0v-2.57h14.53a16.461,16.461,0,0,0-1.48,2.53h-9.348a0.75,0.75,0,1,0,0,1.5h8.727a16.246,16.246,0,0,0-.538,1.83h-8.189a0.75,0.75,0,1,0,0,1.5h7.911a16.821,16.821,0,0,0-.151,1.84h-7.76a0.75,0.75,0,1,0,0,1.5h7.786a16.639,16.639,0,0,0,1.68,6.33H786.73a0.753,0.753,0,0,0-.751.75v22.22a0.753,0.753,0,0,0,.751.75h6a0.753,0.753,0,0,0,.751-0.75v-16.62a16.67,16.67,0,0,0,2.1,1.23v15.39a0.753,0.753,0,0,0,.75.75h6a0.753,0.753,0,0,0,.75-0.75v-13.69c0.585-.01,1.169-0.05,1.751-0.11v11.59a0.751,0.751,0,0,0,1.5,0v-11.83a16.678,16.678,0,0,0,6.668-3.04l7.7,7.7A2.254,2.254,0,0,0,823.888,5827.51Zm-31.906,11.82h-4.5v-20.72h1.352a16.828,16.828,0,0,0,2.318,2.91c0.27,0.27.548,0.52,0.832,0.77v17.04Zm5.1,0v-13.99a16.686,16.686,0,0,0,4.5.99v13h-4.5Zm25.742-9.69a0.75,0.75,0,0,1-1.061,0l-7.6-7.61c0.184-.16.366-0.34,0.543-0.51s0.35-.36.519-0.55l7.6,7.61A0.75,0.75,0,0,1,822.827,5829.64Zm-17.238,10.71a0.753,0.753,0,0,0-.751.75v1.7H774.824v-36.9a0.75,0.75,0,0,0-1.5,0v37.66a0.744,0.744,0,0,0,.75.74h31.515a0.744,0.744,0,0,0,.75-0.74v-2.46A0.753,0.753,0,0,0,805.589,5840.35Zm-29.014-16.48v16.21a0.753,0.753,0,0,0,.75.75h6a0.753,0.753,0,0,0,.751-0.75v-16.21a0.747,0.747,0,0,0-.751-0.75h-6A0.746,0.746,0,0,0,776.575,5823.87Zm1.5,0.75h4.5v14.71h-4.5v-14.71Zm6.06-10.51a0.75,0.75,0,1,0,0-1.5h-5.61a0.75,0.75,0,1,0,0,1.5h5.61Zm18.793-18.02a13.63,13.63,0,1,0,9.656,3.99A13.541,13.541,0,0,0,802.929,5796.09Zm8.6,22.24a12.17,12.17,0,1,1,3.554-8.59A12.046,12.046,0,0,1,811.524,5818.33Z" transform="translate(-764.562 -5781.47)"/>
</svg>
