<svg xmlns="http://www.w3.org/2000/svg" width="56.281" height="58.69" viewBox="0 0 56.281 58.69">
  <defs>
    <style>
      .cls-1 {
        fill: #fee5f5;
      }

      .cls-1, .cls-2 {
        fill-rule: evenodd;
      }

      .cls-2 {
        fill: #202932;
      }
    </style>
  </defs>
  <path id="Shape_19_copy_2" data-name="Shape 19 copy 2" class="cls-1" d="M419.7,5967.34a14.993,14.993,0,0,0-10.264-20.65c-3.793-.91-7.986-0.37-11.417-2.21-4.865-2.62-6.748-9.29-11.926-11.21-3.771-1.41-8.079.29-11.112,2.93a19.669,19.669,0,0,0,2.569,31.59c2.467,1.53,5.444,2.68,6.771,5.26,1.5,2.91.278,6.46,0.779,9.7,0.785,5.07,6.02,8.68,11.163,8.72s9.962-2.83,13.412-6.63,7.772-12.89,10.025-17.5m-17.918,22.68c-4.085,0-7.957-2-9.725-5.35a19.758,19.758,0,0,1-1.334-3.66c-0.575-1.99-1.119-3.86-2.532-5.21-1.594-1.53-3.895-1.95-6.12-2.35-0.631-.12-1.282-0.24-1.907-0.38a19.884,19.884,0,0,1-12.863-29.32c1.818-3.15,5.258-6.48,9.509-6.48h0.212c3,0.08,5.568,1.78,8.054,3.42,2.162,1.43,4.4,2.91,6.908,3.32a18.049,18.049,0,0,0,7.09-.76,30.834,30.834,0,0,1,4.378-.85,15.21,15.21,0,0,1,16.655,16.4l-0.118.97c-0.658,5.4-1.757,14.42-3.668,18.89-2.284,5.33-6.159,9.24-10.631,10.73A12.587,12.587,0,0,1,401.783,5990.02Zm-24.972-52.37c-4.088,0-7.413,3.23-9.177,6.29a19.5,19.5,0,0,0,12.617,28.76c0.616,0.14,1.263.26,1.89,0.37,2.281,0.42,4.64.85,6.316,2.45,1.488,1.42,2.071,3.44,2.635,5.38a19.145,19.145,0,0,0,1.305,3.59c2.209,4.18,8.117,6.22,13.173,4.54,4.368-1.46,8.158-5.29,10.4-10.52,1.89-4.41,2.985-13.41,3.641-18.79l0.116-.95a14.827,14.827,0,0,0-16.237-15.99,30.5,30.5,0,0,0-4.323.84,18.374,18.374,0,0,1-7.244.77c-2.591-.43-4.861-1.93-7.057-3.38-2.553-1.68-4.966-3.28-7.852-3.35C376.945,5937.66,376.878,5937.65,376.811,5937.65Z" transform="translate(-364.688 -5932.78)"/>
  <path class="cls-2" d="M413.4,5964.52a18.935,18.935,0,0,0-5.444-11.49,18.726,18.726,0,0,0-9.246-5.08v-2.38a3.182,3.182,0,0,0-.768-6.27H391.2a3.182,3.182,0,0,0-.769,6.27v2.39a18.713,18.713,0,0,0-9.217,5.07,18.075,18.075,0,0,0-1.589,1.8h-6.741a0.935,0.935,0,1,0,0,1.87h5.467a18.938,18.938,0,0,0-1.661,3.6H366.506a0.935,0.935,0,1,0,0,1.87h9.658a19.059,19.059,0,0,0-.464,3.6h-4.139a0.935,0.935,0,1,0,0,1.87h4.169a19.087,19.087,0,0,0,.584,3.6H370.25a0.935,0.935,0,1,0,0,1.87h6.662a18.776,18.776,0,0,0,4.305,6.66,18.979,18.979,0,0,0,11.5,5.45q0.927,0.09,1.854.09a18.976,18.976,0,0,0,10.319-3.05,0.937,0.937,0,1,0-1.022-1.57,17.046,17.046,0,1,1,5.018-5.03,0.936,0.936,0,1,0,1.57,1.02A18.938,18.938,0,0,0,413.4,5964.52Zm-23.508-22.04a1.313,1.313,0,0,1,1.311-1.31h6.739a1.31,1.31,0,1,1,0,2.62H391.2A1.307,1.307,0,0,1,389.892,5942.48Zm2.414,5.15v-1.96h4.532v1.96A19.085,19.085,0,0,0,392.306,5947.63Zm14.988,30.54a0.948,0.948,0,0,0-.936.94,0.936,0.936,0,0,0,1.872,0A0.946,0.946,0,0,0,407.294,5978.17Zm-12.708-26.29a14.52,14.52,0,1,0,14.521,14.52A14.534,14.534,0,0,0,394.586,5951.88Zm0,27.17a12.65,12.65,0,1,1,12.649-12.65A12.667,12.667,0,0,1,394.586,5979.05Zm5.921-19.9-4.636,4.64a2.9,2.9,0,0,0-2.569,0l-2.075-2.08a0.938,0.938,0,1,0-1.324,1.33l2.075,2.07a2.909,2.909,0,1,0,5.217,0l4.5-4.5h0l0.136-.13A0.938,0.938,0,0,0,400.507,5959.15Zm-5.921,8.28a1.035,1.035,0,1,1,1.037-1.03A1.033,1.033,0,0,1,394.586,5967.43Zm10.008-1.96h-0.867a0.94,0.94,0,0,0,0,1.88h0.867A0.94,0.94,0,0,0,404.594,5965.47Zm-19.148-.02h-0.867a0.935,0.935,0,1,0,0,1.87h0.867A0.935,0.935,0,1,0,385.446,5965.45Zm9.152-7.26a0.935,0.935,0,0,0,.936-0.93v-0.87a0.936,0.936,0,1,0-1.872,0v0.87A0.935,0.935,0,0,0,394.6,5958.19Zm-0.023,16.41a0.937,0.937,0,0,0-.936.94v0.87a0.936,0.936,0,0,0,1.872,0v-0.87A0.937,0.937,0,0,0,394.575,5974.6Zm-28.069-3.36a0.935,0.935,0,1,0,.662,1.6,0.944,0.944,0,0,0,0-1.33A0.956,0.956,0,0,0,366.506,5971.24Z" transform="translate(-364.688 -5932.78)"/>
</svg>
